#!OML:ASF I:\golf\golf\golf 2\Subject 1\2002-09-07\Subject1.ASF
:FULLY-SPECIFIED
:DEGREES
267
root -0.92636 16.8439 -3.66526 81.3126 26.2397 23.8708
lowerback 17.9963 4.54165 7.03221
upperback 13.2824 6.98239 11.5881
thorax 3.77532 3.44273 7.57603
lowerneck -10.9029 -12.4112 -1.03333
upperneck -7.21288 -16.9854 0.594888
head -0.392669 -8.7049 -0.134978
rclavicle -3.49861e-014 -6.36111e-014
rhumerus 54.1884 -19.3282 -23.4434
rradius 20.8028
rwrist 14.8973
rhand -31.7507 7.0446
rfingers 7.12502
rthumb -5.00806 -22.8762
lclavicle -3.49861e-014 -6.36111e-014
lhumerus -19.7506 -34.9078 102.662
lradius 93.6233
lwrist 14.5305
lhand -12.8381 28.8718
lfingers 7.12502
lthumb 13.2493 58.4307
rfemur -104.74 -14.8495 14.5046
rtibia 47.6642
rfoot -7.61186 -15.2465
rtoes 23.3199
lfemur -62.9551 -2.74794 -12.4403
ltibia 31.5418
lfoot 5.54367 -12.1954
ltoes -15.419
268
root -0.933103 16.8385 -3.64665 81.9483 26.1855 24.1931
lowerback 17.9463 4.49309 7.16684
upperback 13.2555 6.93589 11.6268
thorax 3.78863 3.42545 7.55509
lowerneck -10.5363 -12.495 -0.560214
upperneck -8.1274 -17.2159 0.358137
head -0.794234 -8.84328 -0.199127
rclavicle -1.27222e-014 -1.1291e-013
rhumerus 54.5634 -19.8641 -23.4036
rradius 20.7515
rwrist 15.3725
rhand -31.427 7.14876
rfingers 7.12502
rthumb -4.69542 -22.7792
lclavicle -1.27222e-014 -1.1291e-013
lhumerus -19.8229 -35.0526 102.659
lradius 94.339
lwrist 14.6156
lhand -12.7922 28.9768
lfingers 7.12502
lthumb 13.2935 58.5328
rfemur -105.104 -15.0975 14.3629
rtibia 47.557
rfoot -7.59975 -15.3722
rtoes 23.5819
lfemur -62.9838 -2.77145 -12.3879
ltibia 31.4166
lfoot 6.16418 -11.8678
ltoes -15.3593
269
root -0.937683 16.8347 -3.626 82.4635 26.0609 24.4138
lowerback 17.7953 4.53819 7.26488
upperback 13.3222 6.97679 11.6833
thorax 3.94619 3.44706 7.57995
lowerneck -10.7468 -12.5998 -0.59277
upperneck -8.15774 -17.3668 0.317416
head -0.774119 -8.92378 -0.223206
rclavicle 1.33583e-013 -1.11319e-014
rhumerus 54.71 -20.4082 -23.0512
rradius 20.7022
rwrist 15.7756
rhand -30.9663 7.32234
rfingers 7.12502
rthumb -4.25061 -22.615
lclavicle 1.33583e-013 -1.11319e-014
lhumerus -19.7637 -35.3512 102.713
lradius 94.8783
lwrist 14.715
lhand -12.683 28.5449
lfingers 7.12502
lthumb 13.3987 58.094
rfemur -105.381 -15.2669 14.2053
rtibia 47.4049
rfoot -7.56765 -15.4564
rtoes 23.4744
lfemur -62.8942 -2.81853 -12.2902
ltibia 31.2535
lfoot 6.81581 -11.4158
ltoes -14.9189
270
root -0.944435 16.8289 -3.60724 83.1183 25.9445 24.6799
lowerback 17.6474 4.54968 7.35527
upperback 13.2628 6.98709 11.6863
thorax 3.96686 3.45594 7.53906
lowerneck -10.8822 -12.7001 -0.583008
upperneck -8.19331 -17.5166 0.260831
head -0.771942 -9.00361 -0.251826
rclavicle -4.13472e-014 -3.02153e-014
rhumerus 55.0301 -20.9736 -23.2636
rradius 20.5415
rwrist 16.7438
rhand -30.4577 7.47076
rfingers 7.12502
rthumb -3.75941 -22.4758
lclavicle -4.13472e-014 -3.02153e-014
lhumerus -19.8929 -35.5235 102.791
lradius 95.403
lwrist 14.7772
lhand -12.6133 28.6082
lfingers 7.12502
lthumb 13.4659 58.1529
rfemur -105.753 -15.4854 14.0201
rtibia 47.2122
rfoot -7.49191 -15.5945
rtoes 23.4369
lfemur -62.9464 -2.84547 -12.2106
ltibia 31.1011
lfoot 7.62739 -10.883
ltoes -12.9757
271
root -0.952134 16.8311 -3.58897 83.6909 25.7977 24.8679
lowerback 17.6519 4.58692 7.39727
upperback 13.1427 7.04817 11.6598
thorax 3.83237 3.48716 7.46211
lowerneck -10.8957 -12.7563 -0.524347
upperneck -8.31121 -17.6095 0.271031
head -0.8115 -9.05542 -0.254012
rclavicle -7.31528e-014 1.03368e-013
rhumerus 55.4625 -21.6118 -23.9613
rradius 20.3354
rwrist 18.0391
rhand -29.9149 7.65328
rfingers 7.12502
rthumb -3.23531 -22.3019
lclavicle -7.31528e-014 1.03368e-013
lhumerus -20.1433 -35.7447 102.832
lradius 96.2057
lwrist 14.8681
lhand -12.5519 29.0416
lfingers 7.12502
lthumb 13.5252 58.5823
rfemur -106.042 -15.6276 13.7911
rtibia 46.9765
rfoot -7.41128 -15.7362
rtoes 23.7983
lfemur -62.964 -2.93905 -12.0051
ltibia 31.0078
lfoot 8.34672 -10.0169
ltoes -10.0456
272
root -0.958529 16.8392 -3.56891 83.9966 25.6195 24.8881
lowerback 17.8014 4.65845 7.37822
upperback 13.125 7.15272 11.6688
thorax 3.72284 3.53359 7.4494
lowerneck -10.7137 -12.7488 -0.513503
upperneck -8.71327 -17.6114 0.465357
head -0.94826 -9.06204 -0.168468
rclavicle -2.22639e-014 7.95139e-015
rhumerus 55.9608 -22.1766 -24.6417
rradius 20.0852
rwrist 19.2288
rhand -29.4376 7.82811
rfingers 7.12502
rthumb -2.77436 -22.1336
lclavicle -2.22639e-014 7.95139e-015
lhumerus -20.1632 -35.9173 102.843
lradius 96.5549
lwrist 14.9733
lhand -12.5707 28.6819
lfingers 7.12502
lthumb 13.507 58.2239
rfemur -106.178 -15.6187 13.6948
rtibia 46.7241
rfoot -7.29645 -15.7528
rtoes 23.9815
lfemur -62.7776 -2.86658 -11.94
ltibia 30.9968
lfoot 8.65197 -9.56097
ltoes -9.59411
273
root -0.961325 16.8423 -3.55353 84.3153 25.6157 24.9084
lowerback 17.8077 4.65304 7.53867
upperback 13.1609 7.16093 11.7165
thorax 3.7766 3.54257 7.41802
lowerneck -10.5679 -12.7372 -0.488588
upperneck -9.1702 -17.6104 0.67533
head -1.09702 -9.06964 -0.0803637
rclavicle -8.5875e-014 -9.54166e-015
rhumerus 56.6889 -22.7056 -25.6168
rradius 19.7547
rwrist 20.6524
rhand -28.99 7.88258
rfingers 7.12502
rthumb -2.34203 -22.0843
lclavicle -8.5875e-014 -9.54166e-015
lhumerus -20.1292 -35.9881 102.803
lradius 96.9902
lwrist 15.0415
lhand -12.4417 28.829
lfingers 7.12502
lthumb 13.6313 58.3627
rfemur -106.367 -15.6443 13.8675
rtibia 46.4739
rfoot -7.18939 -15.6091
rtoes 24.2998
lfemur -62.6646 -2.60312 -11.9781
ltibia 31.0612
lfoot 8.79454 -9.76423
ltoes -11.4274
274
root -0.966204 16.8451 -3.53848 84.5852 25.6815 24.9459
lowerback 17.6691 4.79795 7.58037
upperback 13.2813 7.32216 11.9064
thorax 3.9555 3.61415 7.60988
lowerneck -10.5918 -12.8401 -0.197597
upperneck -9.59548 -17.8215 0.548851
head -1.26736 -9.1935 -0.138352
rclavicle -2.8625e-014 -9.54166e-015
rhumerus 54.4203 -21.6542 -20.5791
rradius 20.6528
rwrist 16.5584
rhand -28.5554 7.22207
rfingers 7.12502
rthumb -1.92233 -22.749
lclavicle -2.8625e-014 -9.54166e-015
lhumerus -20.0646 -36.3668 102.92
lradius 97.5617
lwrist 15.1159
lhand -12.3878 28.964
lfingers 7.12502
lthumb 13.6832 58.4942
rfemur -106.473 -15.6629 14.0082
rtibia 46.2432
rfoot -7.08628 -15.4311
rtoes 24.9199
lfemur -62.5409 -2.39398 -11.8793
ltibia 31.1645
lfoot 9.06563 -9.7143
ltoes -12.1963
275
root -0.970315 16.8498 -3.52145 84.831 25.6041 24.9844
lowerback 17.714 4.78947 7.59155
upperback 13.306 7.31542 11.9279
thorax 3.9599 3.6092 7.62755
lowerneck -10.4371 -12.8163 -0.0568516
upperneck -10.0713 -17.8282 0.580092
head -1.45326 -9.20735 -0.113233
rclavicle -1.78111e-013 -5.725e-014
rhumerus 54.4662 -21.7599 -20.4558
rradius 20.6307
rwrist 16.9059
rhand -28.5751 7.58462
rfingers 7.12502
rthumb -1.94132 -22.3863
lclavicle -1.78111e-013 -5.725e-014
lhumerus -20.0907 -36.4161 102.799
lradius 98.0111
lwrist 15.2191
lhand -12.5374 28.5181
lfingers 7.12502
lthumb 13.5391 58.0579
rfemur -106.569 -15.6802 14.0075
rtibia 46.0296
rfoot -6.89141 -15.3604
rtoes 24.1871
lfemur -62.3908 -2.31142 -11.793
ltibia 31.2795
lfoot 9.40992 -9.22619
ltoes -11.2247
276
root -0.974523 16.8575 -3.5025 85.0377 25.4635 25.0172
lowerback 17.9245 4.67463 7.64009
upperback 13.2518 7.20564 11.8356
thorax 3.81599 3.56079 7.48881
lowerneck -10.2855 -12.7306 -0.0775489
upperneck -10.288 -17.7035 0.764149
head -1.52568 -9.14676 -0.0351143
rclavicle -7.31528e-014 5.40694e-014
rhumerus 56.9022 -23.0806 -25.2453
rradius 19.5587
rwrist 21.7684
rhand -28.88 8.8381
rfingers 7.12502
rthumb -2.23584 -21.1299
lclavicle -7.31528e-014 5.40694e-014
lhumerus -20.2109 -36.2127 102.59
lradius 98.3733
lwrist 15.24
lhand -12.5995 28.4478
lfingers 7.12502
lthumb 13.4792 57.9916
rfemur -106.631 -15.6916 13.9496
rtibia 45.8136
rfoot -6.75146 -15.3992
rtoes 23.017
lfemur -62.1779 -2.13351 -11.9071
ltibia 31.3828
lfoot 9.69724 -8.89286
ltoes -9.8624
277
root -0.973991 16.8654 -3.48904 85.3236 25.3884 25.1141
lowerback 17.7325 4.81999 7.58844
upperback 13.3026 7.35323 11.9504
thorax 3.94027 3.62391 7.64607
lowerneck -10.3298 -12.8239 0.152866
upperneck -10.4506 -17.8724 0.736937
head -1.59579 -9.24556 -0.0701523
rclavicle -1.27222e-014 2.54444e-014
rhumerus 54.6881 -22.1402 -20.9494
rradius 20.2949
rwrist 18.4384
rhand -29.2283 8.97043
rfingers 7.12502
rthumb -2.57223 -20.9938
lclavicle -1.27222e-014 2.54444e-014
lhumerus -20.1379 -36.588 102.729
lradius 98.7643
lwrist 15.2812
lhand -12.6259 28.8579
lfingers 7.12502
lthumb 13.4538 58.4034
rfemur -106.724 -15.7989 13.9517
rtibia 45.5823
rfoot -6.64849 -15.4542
rtoes 22.8449
lfemur -62.0637 -2.06527 -11.9552
ltibia 31.487
lfoot 9.85377 -8.70338
ltoes -9.52959
